<svg xmlns="http://www.w3.org/2000/svg" viewBox="0 0 100 100" width="100px" height="100px"><path fill="#c7ede6" d="M87.215,56.71C88.35,54.555,89,52.105,89,49.5c0-6.621-4.159-12.257-10.001-14.478 C78.999,35.015,79,35.008,79,35c0-11.598-9.402-21-21-21c-9.784,0-17.981,6.701-20.313,15.757C36.211,29.272,34.638,29,33,29 c-7.692,0-14.023,5.793-14.89,13.252C12.906,43.353,9,47.969,9,53.5C9,59.851,14.149,65,20.5,65c0.177,0,0.352-0.012,0.526-0.022 C21.022,65.153,21,65.324,21,65.5C21,76.822,30.178,86,41.5,86c6.437,0,12.175-2.972,15.934-7.614C59.612,80.611,62.64,82,66,82 c4.65,0,8.674-2.65,10.666-6.518C77.718,75.817,78.837,76,80,76c6.075,0,11-4.925,11-11C91,61.689,89.53,58.727,87.215,56.71z"/><path fill="#fdfcef" d="M69.125,41.5c0,0-3.64,0-6.125,0s-4.5-2.015-4.5-4.5c0-2.333,1.782-4.229,4.055-4.455 C62.533,32.364,62.5,32.187,62.5,32c0-2.485,2.015-4.5,4.5-4.5c1.438,0,2.703,0.686,3.527,1.736 C70.667,26.6,72.829,24.5,75.5,24.5c2.761,0,5,2.239,5,5c0,0.446-0.077,0.87-0.187,1.282c0.642-0.777,1.6-1.282,2.687-1.282 c1.781,0,3.234,1.335,3.455,3.055C86.636,32.533,86.813,32.5,87,32.5c2.485,0,4.5,2.015,4.5,4.5s-2.015,4.5-4.5,4.5s-9.5,0-9.5,0 h-5.375V42h-3V41.5z"/><path fill="#472b29" d="M75.5,24c3.033,0,5.5,2.467,5.5,5.5c0,0.016,0,0.031,0,0.047C81.602,29.192,82.29,29,83,29 c1.831,0,3.411,1.261,3.858,3.005C86.905,32.002,86.952,32,87,32c2.757,0,5,2.243,5,5s-2.243,5-5,5H72.125 c-0.276,0-0.5-0.224-0.5-0.5s0.224-0.5,0.5-0.5H87c2.206,0,4-1.794,4-4s-1.794-4-4-4c-0.117,0-0.23,0.017-0.343,0.032 l-0.141,0.019c-0.021,0.003-0.041,0.004-0.062,0.004c-0.246,0-0.462-0.185-0.495-0.437C85.768,31.125,84.496,30,83,30 c-0.885,0-1.723,0.401-2.301,1.1c-0.098,0.118-0.241,0.182-0.386,0.182c-0.078,0-0.156-0.018-0.228-0.056 c-0.209-0.107-0.314-0.346-0.254-0.573C79.946,30.218,80,29.852,80,29.5c0-2.481-2.019-4.5-4.5-4.5 c-2.381,0-4.347,1.872-4.474,4.263c-0.011,0.208-0.15,0.387-0.349,0.45c-0.05,0.016-0.101,0.024-0.152,0.024 c-0.15,0-0.296-0.069-0.392-0.192C69.362,28.563,68.221,28,67,28c-2.206,0-4,1.794-4,4c0,0.117,0.017,0.23,0.032,0.343 l0.019,0.141c0.016,0.134-0.022,0.268-0.106,0.373c-0.084,0.105-0.207,0.172-0.34,0.185C60.549,33.247,59,34.949,59,37 c0,2.206,1.794,4,4,4h6.125c0.276,0,0.5,0.224,0.5,0.5s-0.224,0.5-0.5,0.5H63c-2.757,0-5-2.243-5-5 c0-2.397,1.689-4.413,4.003-4.877C62.001,32.082,62,32.041,62,32c0-2.757,2.243-5,5-5c1.176,0,2.293,0.416,3.183,1.164 C70.781,25.76,72.945,24,75.5,24L75.5,24z"/><path fill="#472b29" d="M77 31c1.403 0 2.609.999 2.913 2.341C80.28 33.119 80.699 33 81.125 33c1.202 0 2.198.897 2.353 2.068C83.681 35.022 83.874 35 84.063 35c1.529 0 2.811 1.2 2.918 2.732C86.99 37.87 86.886 37.99 86.749 38c-.006 0-.012 0-.018 0-.13 0-.24-.101-.249-.232-.089-1.271-1.151-2.268-2.419-2.268-.229 0-.47.042-.738.127-.022.007-.045.01-.067.01-.055 0-.11-.02-.156-.054C83.038 35.537 83 35.455 83 35.375c0-1.034-.841-1.875-1.875-1.875-.447 0-.885.168-1.231.473-.047.041-.106.063-.165.063-.032 0-.063-.006-.093-.019-.088-.035-.148-.117-.155-.212C79.377 32.512 78.288 31.5 77 31.5c-.208 0-.425.034-.682.107-.023.007-.047.01-.07.01-.109 0-.207-.073-.239-.182-.038-.133.039-.271.172-.309C76.483 31.04 76.744 31 77 31L77 31zM63.117 32.5c1.326 0 2.508.897 2.874 2.182.038.133-.039.271-.172.309C65.795 34.997 65.772 35 65.75 35c-.109 0-.209-.072-.24-.182C65.205 33.748 64.221 33 63.117 33c-.117 0-.23.014-.342.029-.012.002-.023.003-.035.003-.121 0-.229-.092-.246-.217-.019-.137.077-.263.214-.281C62.842 32.516 62.978 32.5 63.117 32.5L63.117 32.5z"/><path fill="#fff" d="M16.405 48H6.5C6.224 48 6 47.776 6 47.5S6.224 47 6.5 47h9.905c.276 0 .5.224.5.5S16.682 48 16.405 48zM19.5 48h-1c-.276 0-.5-.224-.5-.5s.224-.5.5-.5h1c.276 0 .5.224.5.5S19.777 48 19.5 48zM24.491 50H15.5c-.276 0-.5-.224-.5-.5s.224-.5.5-.5h8.991c.276 0 .5.224.5.5S24.767 50 24.491 50zM13.5 50h-1c-.276 0-.5-.224-.5-.5s.224-.5.5-.5h1c.276 0 .5.224.5.5S13.777 50 13.5 50zM10.5 50h-2C8.224 50 8 49.776 8 49.5S8.224 49 8.5 49h2c.276 0 .5.224.5.5S10.777 50 10.5 50zM16.5 52h-2c-.276 0-.5-.224-.5-.5s.224-.5.5-.5h2c.276 0 .5.224.5.5S16.776 52 16.5 52zM19.5 43c-.177 0-.823 0-1 0-.276 0-.5.224-.5.5 0 .276.224.5.5.5.177 0 .823 0 1 0 .276 0 .5-.224.5-.5C20 43.224 19.776 43 19.5 43zM19.5 45c-.177 0-4.823 0-5 0-.276 0-.5.224-.5.5 0 .276.224.5.5.5.177 0 4.823 0 5 0 .276 0 .5-.224.5-.5C20 45.224 19.776 45 19.5 45zM24.5 47c-.177 0-2.823 0-3 0-.276 0-.5.224-.5.5 0 .276.224.5.5.5.177 0 2.823 0 3 0 .276 0 .5-.224.5-.5C25 47.224 24.776 47 24.5 47z"/><g><path fill="#fff" d="M88.5 65h-10c-.276 0-.5-.224-.5-.5s.224-.5.5-.5h10c.276 0 .5.224.5.5S88.776 65 88.5 65zM92.5 65h-2c-.276 0-.5-.224-.5-.5s.224-.5.5-.5h2c.276 0 .5.224.5.5S92.776 65 92.5 65zM97.5 67h-10c-.276 0-.5-.224-.5-.5s.224-.5.5-.5h10c.276 0 .5.224.5.5S97.777 67 97.5 67zM85.5 67h-1c-.276 0-.5-.224-.5-.5s.224-.5.5-.5h1c.276 0 .5.224.5.5S85.776 67 85.5 67zM82.375 67H80.5c-.276 0-.5-.224-.5-.5s.224-.5.5-.5h1.875c.276 0 .5.224.5.5S82.651 67 82.375 67zM91.5 63h-5c-.276 0-.5-.224-.5-.5s.224-.5.5-.5h5c.276 0 .5.224.5.5S91.777 63 91.5 63zM88.5 69h-2c-.276 0-.5-.224-.5-.5s.224-.5.5-.5h2c.276 0 .5.224.5.5S88.776 69 88.5 69z"/></g><g><path fill="#ef7d99" d="M65.333,76H38.667C33.9,76,30,72.1,30,67.333V40.667C30,35.9,33.9,32,38.667,32h26.667 C70.1,32,74,35.9,74,40.667v26.667C74,72.1,70.1,76,65.333,76z"/></g><g><path fill="#472b29" d="M65.489,75.95H38.386c-4.665,0-8.461-3.796-8.461-8.461V40.386c0-4.665,3.796-8.461,8.461-8.461 h27.104c4.665,0,8.461,3.796,8.461,8.461v3.629c0,0.387-0.313,0.7-0.7,0.7s-0.7-0.313-0.7-0.7v-3.629 c0-3.894-3.167-7.061-7.061-7.061H38.386c-3.893,0-7.061,3.167-7.061,7.061v27.104c0,3.894,3.167,7.061,7.061,7.061h27.104 c3.893,0,7.061-3.167,7.061-7.061v-5.246c0-0.387,0.313-0.7,0.7-0.7s0.7,0.313,0.7,0.7v5.246 C73.95,72.154,70.154,75.95,65.489,75.95z"/></g><g><path fill="#472b29" d="M65,72H39c-2.757,0-5-2.243-5-5V41c0-2.757,2.243-5,5-5c0.276,0,0.5,0.224,0.5,0.5S39.276,37,39,37 c-2.206,0-4,1.794-4,4v26c0,2.206,1.794,4,4,4h26c2.206,0,4-1.794,4-4v-1.375c0-0.276,0.224-0.5,0.5-0.5s0.5,0.224,0.5,0.5V67 C70,69.757,67.757,72,65,72z"/></g><g><path fill="#472b29" d="M56.25,72H39c-2.757,0-5-2.243-5-5V41c0-2.757,2.243-5,5-5h9.375c0.276,0,0.5,0.224,0.5,0.5 s-0.224,0.5-0.5,0.5H39c-2.206,0-4,1.794-4,4v26c0,2.206,1.794,4,4,4h17.25c0.276,0,0.5,0.224,0.5,0.5S56.526,72,56.25,72z"/></g><g><path fill="#472b29" d="M55.125,37h-4c-0.276,0-0.5-0.224-0.5-0.5s0.224-0.5,0.5-0.5h4c0.276,0,0.5,0.224,0.5,0.5 S55.401,37,55.125,37z"/></g><g><path fill="#472b29" d="M69.5,42.875c-0.276,0-0.5-0.224-0.5-0.5V41c0-2.206-1.794-4-4-4h-5.125c-0.276,0-0.5-0.224-0.5-0.5 s0.224-0.5,0.5-0.5H65c2.757,0,5,2.243,5,5v1.375C70,42.651,69.776,42.875,69.5,42.875z"/></g><g><path fill="#fffef4" d="M76.217,55.066c0.781-0.781,0.781-2.047,0-2.828L65.414,41.434c-0.93-0.931-2.552-0.753-3.216,0.536 c-0.401,0.777-0.167,1.737,0.451,2.355l7.175,7.175H44.085c-0.874,0-1.717,0.515-1.981,1.348C41.665,54.229,42.684,55.5,44,55.5 h26.127l-7.161,7.162c-0.672,0.672-0.873,1.738-0.365,2.541c0.4,0.633,1.052,0.949,1.703,0.949c0.512,0,1.024-0.195,1.414-0.586 L76.217,55.066z"/><path fill="#472b29" d="M64.303,66.652c-0.863,0-1.658-0.441-2.126-1.182c-0.612-0.968-0.43-2.298,0.435-3.162L68.919,56H44 c-0.794,0-1.549-0.383-2.019-1.024c-0.478-0.653-0.607-1.483-0.355-2.279C41.944,51.697,42.955,51,44.084,51h24.532l-6.321-6.322 c-0.799-0.799-1.021-2.007-0.542-2.938c0.382-0.741,1.061-1.237,1.86-1.362c0.788-0.119,1.592,0.141,2.154,0.702l10.803,10.805 c0.472,0.472,0.732,1.1,0.732,1.768c0,0.667-0.26,1.295-0.732,1.768l0,0l-10.5,10.5C65.599,66.393,64.971,66.652,64.303,66.652z M44.084,52c-0.699,0-1.318,0.411-1.505,0.999c-0.155,0.488-0.079,0.993,0.209,1.386C43.07,54.771,43.523,55,44,55h26.126 c0.202,0,0.385,0.122,0.462,0.309c0.078,0.187,0.035,0.402-0.108,0.545l-7.161,7.162c-0.537,0.536-0.661,1.344-0.297,1.92 c0.508,0.805,1.688,0.933,2.341,0.277l10.5-10.5c0.283-0.283,0.439-0.66,0.439-1.061c0-0.401-0.156-0.777-0.439-1.061 L65.061,41.787c-0.337-0.337-0.821-0.493-1.293-0.421c-0.481,0.074-0.891,0.378-1.125,0.833c-0.283,0.548-0.135,1.276,0.36,1.771 l7.175,7.176c0.143,0.143,0.186,0.358,0.108,0.545C70.208,51.878,70.025,52,69.823,52H44.084z"/></g><g><path fill="#fdfcef" d="M39.5,79.5c0,0,1.567,0,3.5,0s3.5-1.567,3.5-3.5c0-1.781-1.335-3.234-3.055-3.455 C43.473,72.366,43.5,72.187,43.5,72c0-1.933-1.567-3.5-3.5-3.5c-1.032,0-1.95,0.455-2.59,1.165 c-0.384-1.808-1.987-3.165-3.91-3.165c-2.209,0-4,1.791-4,4c0,0.191,0.03,0.374,0.056,0.558C29.128,70.714,28.592,70.5,28,70.5 c-1.228,0-2.245,0.887-2.455,2.055C25.366,72.527,25.187,72.5,25,72.5c-1.933,0-3.5,1.567-3.5,3.5s1.567,3.5,3.5,3.5s7.5,0,7.5,0 V80h7V79.5z"/><path fill="#472b29" d="M41.25 75C41.112 75 41 74.888 41 74.75c0-1.223.995-2.218 2.218-2.218.034.009.737-.001 1.244.136.133.036.212.173.176.306-.036.134-.173.213-.306.176-.444-.12-1.1-.12-1.113-.118-.948 0-1.719.771-1.719 1.718C41.5 74.888 41.388 75 41.25 75zM34.5 79A.5.5 0 1 0 34.5 80 .5.5 0 1 0 34.5 79z"/><path fill="#472b29" d="M43,80h-3.5c-0.276,0-0.5-0.224-0.5-0.5s0.224-0.5,0.5-0.5H43c1.654,0,3-1.346,3-3 c0-1.496-1.125-2.768-2.618-2.959c-0.134-0.018-0.255-0.088-0.336-0.196s-0.115-0.244-0.094-0.377C42.975,72.314,43,72.16,43,72 c0-1.654-1.346-3-3-3c-0.85,0-1.638,0.355-2.219,1c-0.125,0.139-0.321,0.198-0.5,0.148c-0.182-0.049-0.321-0.195-0.36-0.379 C36.58,68.165,35.141,67,33.5,67c-1.93,0-3.5,1.57-3.5,3.5c0,0.143,0.021,0.28,0.041,0.418c0.029,0.203-0.063,0.438-0.242,0.54 c-0.179,0.102-0.396,0.118-0.556-0.01C28.878,71.155,28.449,71,28,71c-0.966,0-1.792,0.691-1.963,1.644 c-0.048,0.267-0.296,0.446-0.569,0.405C25.314,73.025,25.16,73,25,73c-1.654,0-3,1.346-3,3s1.346,3,3,3h7.5 c0.276,0,0.5,0.224,0.5,0.5S32.776,80,32.5,80H25c-2.206,0-4-1.794-4-4s1.794-4,4-4c0.059,0,0.116,0.002,0.174,0.006 C25.588,70.82,26.711,70,28,70c0.349,0,0.689,0.061,1.011,0.18C29.176,67.847,31.126,66,33.5,66c1.831,0,3.466,1.127,4.153,2.774 C38.333,68.276,39.155,68,40,68c2.206,0,4,1.794,4,4c0,0.048-0.001,0.095-0.004,0.142C45.739,72.59,47,74.169,47,76 C47,78.206,45.206,80,43,80z"/><path fill="#472b29" d="M37.5,79c-0.159,0-0.841,0-1,0c-0.276,0-0.5,0.224-0.5,0.5c0,0.276,0.224,0.5,0.5,0.5 c0.159,0,0.841,0,1,0c0.276,0,0.5-0.224,0.5-0.5C38,79.224,37.776,79,37.5,79z"/></g></svg>