<svg xmlns="http://www.w3.org/2000/svg" viewBox="0 0 100 100" width="100px" height="100px"><path fill="#c8ede6" d="M87.102,55.78c0.3-0.616,0.566-1.264,0.796-1.943c2.633-7.77-1.349-17.078-9.733-19.325c-0.906-11.384-8.906-19.193-17.941-20.526c-10.341-1.525-19.814,5.044-22.966,15.485c-3.799-1.346-7.501-1.182-10.99,0.857c-1.583,0.732-3.031,1.812-4.33,3.233c-1.907,2.086-3.147,4.719-3.652,7.495c-0.748,0.118-1.483,0.236-2.176,0.484c-4.04,1.449-6.589,4.431-7.288,8.923c-0.435,2.797,0.443,5.587,0.933,6.714c1.935,4.455,6.422,6.98,10.981,6.312c0.227-0.033,0.557,0.069,0.752,0.233c0.241,7.12,3.698,13.417,8.884,17.014c8.321,5.772,19.027,3.994,25.781-3.921c2.894,2.96,6.338,4.398,10.384,3.876c4.023-0.519,7.147-2.739,9.426-6.349c1.053,0.283,2.051,0.691,3.083,0.804c4.042,0.442,7.118-1.311,9.732-4.8c1.488-1.986,1.779-5.145,1.793-6.354C90.61,60.737,89.279,57.769,87.102,55.78z"/><path fill="#fdfcef" d="M76.613,53.646c0,0,11.691,0,11.762,0c2.7,0,4.888-2.189,4.888-4.889c0-2.355-1.666-4.321-3.884-4.784c0.026-0.206,0.043-0.415,0.043-0.628c0-2.796-2.267-5.063-5.063-5.063c-1.651,0-3.113,0.794-4.037,2.017c-0.236-3.113-3.017-5.514-6.27-5.116c-2.379,0.291-4.346,2.13-4.784,4.486c-0.14,0.756-0.126,1.489,0.014,2.177c-0.638-0.687-1.546-1.119-2.557-1.119c-1.85,0-3.361,1.441-3.48,3.261c-0.84-0.186-1.754-0.174-2.717,0.188c-1.84,0.691-3.15,2.423-3.227,4.387c-0.109,2.789,2.12,5.085,4.885,5.085c0.21,0,0.948,0,1.118,0h10.151"/><path fill="#472b29" d="M88.375,54.146H76.613c-0.276,0-0.5-0.224-0.5-0.5s0.224-0.5,0.5-0.5h11.762c2.419,0,4.388-1.969,4.388-4.389c0-2.066-1.466-3.873-3.486-4.296c-0.255-0.053-0.426-0.293-0.394-0.552c0.023-0.186,0.039-0.373,0.039-0.565c0-2.516-2.047-4.562-4.563-4.562c-1.439,0-2.765,0.663-3.638,1.818c-0.125,0.166-0.339,0.236-0.54,0.178c-0.199-0.059-0.342-0.234-0.357-0.441c-0.104-1.378-0.779-2.671-1.851-3.55c-1.082-0.888-2.455-1.281-3.859-1.108c-2.166,0.266-3.956,1.943-4.353,4.081c-0.124,0.667-0.12,1.335,0.013,1.986c0.044,0.22-0.062,0.442-0.262,0.545c-0.199,0.103-0.442,0.059-0.595-0.105c-0.574-0.618-1.352-0.959-2.19-0.959c-1.569,0-2.878,1.227-2.981,2.793c-0.01,0.146-0.082,0.28-0.199,0.367c-0.117,0.088-0.268,0.119-0.408,0.089c-0.842-0.186-1.637-0.132-2.433,0.167c-1.668,0.627-2.835,2.209-2.903,3.938c-0.047,1.207,0.387,2.351,1.222,3.219c0.835,0.868,1.958,1.347,3.163,1.347h11.269c0.276,0,0.5,0.224,0.5,0.5s-0.224,0.5-0.5,0.5H62.187c-1.479,0-2.858-0.587-3.884-1.654c-1.025-1.065-1.558-2.469-1.5-3.95c0.083-2.127,1.51-4.069,3.551-4.835c0.8-0.301,1.627-0.398,2.468-0.299c0.376-1.822,1.997-3.182,3.905-3.182c0.685,0,1.354,0.18,1.944,0.51c0-0.386,0.035-0.772,0.106-1.159c0.476-2.562,2.621-4.573,5.215-4.891c1.681-0.21,3.319,0.266,4.615,1.327c1.004,0.823,1.717,1.951,2.039,3.193c1.012-0.915,2.319-1.425,3.713-1.425c3.067,0,5.563,2.495,5.563,5.562c0,0.084-0.002,0.166-0.007,0.248c2.254,0.674,3.848,2.778,3.848,5.165C93.763,51.729,91.346,54.146,88.375,54.146z"/><path fill="#fdfcef" d="M73.78,42.877c-1.808-0.119-3.365,1.13-3.476,2.789c-0.014,0.206-0.005,0.409,0.025,0.606c-0.349-0.394-0.865-0.661-1.458-0.7c-1.085-0.071-2.022,0.645-2.158,1.62c-0.197-0.054-0.403-0.09-0.616-0.104c-1.582-0.104-2.944,0.989-3.042,2.441"/><path fill="#472b29" d="M63.055,49.778c-0.006,0-0.012,0-0.017-0.001c-0.138-0.009-0.242-0.128-0.233-0.266c0.107-1.587,1.59-2.783,3.308-2.673c0.135,0.008,0.271,0.025,0.409,0.053c0.273-0.969,1.262-1.648,2.366-1.568c0.425,0.027,0.823,0.16,1.163,0.382c0.001-0.019,0.002-0.037,0.003-0.056c0.12-1.793,1.793-3.157,3.742-3.021c0.138,0.009,0.242,0.128,0.233,0.266c-0.009,0.137-0.133,0.26-0.266,0.232c-1.685-0.088-3.109,1.039-3.21,2.558c-0.013,0.184-0.005,0.369,0.023,0.551c0.017,0.109-0.041,0.217-0.141,0.265c-0.1,0.046-0.218,0.023-0.293-0.061c-0.323-0.364-0.78-0.583-1.288-0.617c-0.929-0.043-1.775,0.556-1.894,1.405c-0.01,0.071-0.05,0.135-0.11,0.175s-0.134,0.05-0.204,0.032c-0.191-0.052-0.381-0.084-0.566-0.097c-1.431-0.083-2.688,0.896-2.776,2.208C63.296,49.676,63.186,49.778,63.055,49.778z"/><path fill="#fdfcef" d="M90.354,44.546c-1.699-0.801-3.664-0.234-4.389,1.267c-0.09,0.186-0.157,0.379-0.201,0.574"/><path fill="#472b29" d="M85.764,46.635c-0.018,0-0.037-0.002-0.056-0.006c-0.135-0.031-0.219-0.165-0.188-0.3c0.049-0.216,0.123-0.427,0.219-0.626c0.782-1.622,2.902-2.242,4.721-1.385c0.125,0.06,0.179,0.208,0.12,0.333c-0.059,0.126-0.208,0.177-0.333,0.12c-1.572-0.742-3.393-0.227-4.058,1.148c-0.08,0.166-0.141,0.341-0.182,0.521C85.982,46.557,85.879,46.635,85.764,46.635z"/><path fill="#fff" d="M16.767 47.816H6.737c-.276 0-.5-.224-.5-.5s.224-.5.5-.5h10.03c.276 0 .5.224.5.5S17.044 47.816 16.767 47.816zM19.649 47.816h-1.446c-.276 0-.5-.224-.5-.5s.224-.5.5-.5h1.446c.276 0 .5.224.5.5S19.925 47.816 19.649 47.816zM23.703 47.816h-2.546c-.276 0-.5-.224-.5-.5s.224-.5.5-.5h2.546c.276 0 .5.224.5.5S23.979 47.816 23.703 47.816zM23.703 49.68h-9.616c-.276 0-.5-.224-.5-.5s.224-.5.5-.5h9.616c.276 0 .5.224.5.5S23.979 49.68 23.703 49.68zM12.355 49.68h-.58c-.276 0-.5-.224-.5-.5s.224-.5.5-.5h.58c.276 0 .5.224.5.5S12.632 49.68 12.355 49.68zM9.978 49.68H8.522c-.276 0-.5-.224-.5-.5s.224-.5.5-.5h1.456c.276 0 .5.224.5.5S10.255 49.68 9.978 49.68zM19.114 45.951h-5.027c-.276 0-.5-.224-.5-.5s.224-.5.5-.5h5.027c.276 0 .5.224.5.5S19.39 45.951 19.114 45.951zM19.114 44.085h-1.257c-.276 0-.5-.224-.5-.5s.224-.5.5-.5h1.257c.276 0 .5.224.5.5S19.39 44.085 19.114 44.085zM15.845 51.545h-1.759c-.276 0-.5-.224-.5-.5s.224-.5.5-.5h1.759c.276 0 .5.224.5.5S16.122 51.545 15.845 51.545zM69.945 21.539h-10.03c-.276 0-.5-.224-.5-.5s.224-.5.5-.5h10.03c.276 0 .5.224.5.5S70.221 21.539 69.945 21.539zM72.826 21.539h-1.446c-.276 0-.5-.224-.5-.5s.224-.5.5-.5h1.446c.276 0 .5.224.5.5S73.103 21.539 72.826 21.539zM76.881 21.539h-2.546c-.276 0-.5-.224-.5-.5s.224-.5.5-.5h2.546c.276 0 .5.224.5.5S77.157 21.539 76.881 21.539zM74.855 17.809h-9.616c-.276 0-.5-.224-.5-.5s.224-.5.5-.5h9.616c.276 0 .5.224.5.5S75.132 17.809 74.855 17.809zM63.507 17.809h-.58c-.276 0-.5-.224-.5-.5s.224-.5.5-.5h.58c.276 0 .5.224.5.5S63.783 17.809 63.507 17.809zM61.131 17.809h-1.457c-.276 0-.5-.224-.5-.5s.224-.5.5-.5h1.457c.276 0 .5.224.5.5S61.407 17.809 61.131 17.809zM72.292 19.673h-5.027c-.276 0-.5-.224-.5-.5s.224-.5.5-.5h5.027c.276 0 .5.224.5.5S72.569 19.673 72.292 19.673z"/><path fill="#fff" d="M72.292 17.809h-1.257c-.276 0-.5-.224-.5-.5s.224-.5.5-.5h1.257c.276 0 .5.224.5.5S72.569 17.809 72.292 17.809zM65.809 19.673h-1.759c-.276 0-.5-.224-.5-.5s.224-.5.5-.5h1.759c.276 0 .5.224.5.5S66.086 19.673 65.809 19.673z"/><path fill="#fdfcee" d="M75.941,64.591V36.413c0-2.403-1.605-4.369-3.568-4.369H31.939c-1.962,0-3.568,1.966-3.568,4.369v28.178"/><path fill="#472b29" d="M75.941,65.291c-0.387,0-0.7-0.313-0.7-0.7V36.413c0-2.023-1.286-3.669-2.868-3.669H31.939c-1.582,0-2.868,1.646-2.868,3.669V64.59c0,0.387-0.313,0.7-0.7,0.7s-0.7-0.313-0.7-0.7V36.413c0-2.795,1.915-5.069,4.268-5.069h40.434c2.354,0,4.268,2.274,4.268,5.069V64.59C76.641,64.977,76.328,65.291,75.941,65.291z"/><path fill="#c0e5e4" d="M73.437 39.322L73.437 62.087 31.501 62.087 31.501 59.19 31.501 50.084 31.501 36.425 72.539 36.425 73.437 36.425z"/><path fill="#cdcbbd" d="M25.868,64.591v1.878c0,1.721,1.774,3.13,3.943,3.13h44.69c2.169,0,3.943-1.408,3.943-3.13v-1.878H25.868z"/><path fill="#472b29" d="M74.501 70.298h-44.69c-2.561 0-4.644-1.719-4.644-3.83V64.59c0-.387.313-.7.7-.7h52.577c.387 0 .7.313.7.7v1.878C79.145 68.58 77.062 70.298 74.501 70.298zM26.568 65.291v1.178c0 1.317 1.485 2.43 3.243 2.43h44.69c1.758 0 3.243-1.112 3.243-2.43v-1.178H26.568zM52.469 34.547h-1.252c-.172 0-.313-.141-.313-.313l0 0c0-.172.141-.313.313-.313h1.252c.172 0 .313.141.313.313l0 0C52.782 34.406 52.641 34.547 52.469 34.547z"/><path fill="#472b29" d="M54.347 67.72h-4.381c-.172 0-.313-.141-.313-.313l0 0c0-.172.141-.313.313-.313h4.381c.172 0 .313.141.313.313l0 0C54.66 67.58 54.519 67.72 54.347 67.72zM73.124 62.124H31.188c-.193 0-.35-.156-.35-.35V59.27c0-.193.157-.35.35-.35s.35.156.35.35v2.154h41.236V39.242c0-.193.157-.35.35-.35s.35.156.35.35v22.532C73.474 61.967 73.318 62.124 73.124 62.124zM31.188 53.361c-.193 0-.35-.156-.35-.35V36.112c0-.193.157-.35.35-.35h41.936c.193 0 .35.156.35.35s-.157.35-.35.35H31.538v16.55C31.538 53.205 31.382 53.361 31.188 53.361zM31.188 57.743c-.193 0-.35-.156-.35-.35v-2.504c0-.193.157-.35.35-.35s.35.156.35.35v2.504C31.538 57.586 31.382 57.743 31.188 57.743z"/><path fill="#fdfcef" d="M37.881,71.669c1.883,0,3.517,0,3.54,0c2.11,0,3.821-1.674,3.821-3.739c0-1.802-1.302-3.305-3.035-3.66c0.02-0.158,0.034-0.317,0.034-0.48c0-2.139-1.772-3.873-3.957-3.873c-1.29,0-2.433,0.607-3.155,1.543c-0.185-2.381-2.358-4.218-4.9-3.913c-1.859,0.223-3.397,1.629-3.739,3.431c-0.11,0.578-0.098,1.139,0.011,1.665c-0.498-0.525-1.208-0.856-1.998-0.856c-1.446,0-2.627,1.102-2.72,2.494c-0.657-0.142-1.371-0.133-2.123,0.143c-1.438,0.528-2.462,1.853-2.522,3.356c-0.085,2.133,1.657,3.889,3.818,3.889c0.164,0,0.741,0,0.874,0h7.934 M31.404,71.669h0.36"/><path fill="#472b29" d="M41.422,72.168h-3.54c-0.276,0-0.5-0.224-0.5-0.5s0.224-0.5,0.5-0.5h3.54c1.831,0,3.321-1.453,3.321-3.239c0-1.524-1.108-2.857-2.636-3.169c-0.256-0.053-0.429-0.294-0.396-0.553c0.018-0.138,0.03-0.276,0.03-0.418c0-1.86-1.551-3.373-3.457-3.373c-1.092,0-2.098,0.491-2.76,1.349c-0.126,0.164-0.34,0.23-0.539,0.174c-0.198-0.06-0.339-0.234-0.355-0.44c-0.079-1.02-0.565-1.944-1.369-2.604c-0.828-0.68-1.881-0.981-2.973-0.854c-1.646,0.197-3.006,1.442-3.307,3.028c-0.094,0.495-0.091,0.989,0.009,1.471c0.045,0.219-0.06,0.441-0.258,0.545c-0.197,0.103-0.44,0.063-0.594-0.1c-0.428-0.451-1.008-0.699-1.635-0.699c-1.169,0-2.145,0.891-2.221,2.027c-0.01,0.146-0.082,0.279-0.198,0.366c-0.116,0.087-0.264,0.12-0.407,0.089c-0.636-0.136-1.239-0.097-1.845,0.125c-1.262,0.463-2.144,1.631-2.195,2.905c-0.035,0.875,0.283,1.708,0.895,2.345c0.635,0.66,1.495,1.024,2.423,1.024h8.808c0.276,0,0.5,0.224,0.5,0.5s-0.224,0.5-0.5,0.5h-8.808c-1.185,0-2.331-0.485-3.144-1.331c-0.802-0.835-1.219-1.928-1.173-3.077c0.067-1.675,1.212-3.204,2.849-3.806c0.611-0.225,1.243-0.308,1.88-0.244c0.344-1.396,1.629-2.424,3.135-2.424c0.493,0,0.977,0.113,1.414,0.322c0.009-0.241,0.037-0.483,0.083-0.726c0.381-2.009,2.096-3.586,4.17-3.834c1.365-0.169,2.685,0.218,3.727,1.072c0.747,0.613,1.277,1.409,1.546,2.302c0.791-0.648,1.786-1.007,2.842-1.007c2.458,0,4.457,1.962,4.457,4.373c0,0.034,0,0.068-0.001,0.103c1.764,0.555,3.003,2.188,3.003,4.037C45.742,70.267,43.804,72.168,41.422,72.168z M31.764,72.168h-0.36c-0.276,0-0.5-0.224-0.5-0.5s0.224-0.5,0.5-0.5h0.36c0.276,0,0.5,0.224,0.5,0.5S32.04,72.168,31.764,72.168z"/><path fill="#472b29" d="M39.714 66.366c-.018 0-.036-.002-.054-.006-.135-.03-.22-.164-.19-.299.037-.164.094-.325.169-.479.604-1.224 2.274-1.676 3.722-1.007.125.058.18.206.122.331-.059.127-.207.181-.332.122-1.203-.556-2.578-.207-3.064.774-.058.118-.102.241-.129.367C39.932 66.287 39.829 66.366 39.714 66.366zM34.555 72.168h-1.107c-.276 0-.5-.224-.5-.5s.224-.5.5-.5h1.107c.276 0 .5.224.5.5S34.832 72.168 34.555 72.168z"/><path fill="#8e9db5" d="M62.367,41.501l-2.756,2.774l-1.707,0.297l-1.248-1.24l0.286-1.709l2.756-2.774c-1.743-0.675-3.809-0.273-5.171,1.206c-1.24,1.345-1.544,3.281-0.91,4.915L43.044,55.615c-0.72,0.725-0.716,1.907,0.008,2.627l0.034,0.034c0.725,0.72,1.907,0.716,2.627-0.008l10.569-10.644c1.69,0.654,3.681,0.299,5.042-1.071C62.687,45.183,63.033,43.188,62.367,41.501z M44.396,56.924c-0.226-0.224-0.227-0.593-0.003-0.819c0.224-0.226,0.593-0.227,0.819-0.003c0.226,0.224,0.227,0.593,0.003,0.819C44.99,57.148,44.622,57.149,44.396,56.924z"/><path fill="#472b29" d="M44.397,59.064c-0.562,0-1.089-0.217-1.486-0.61c-0.432-0.43-0.652-0.958-0.654-1.522s0.215-1.094,0.61-1.491l10.458-10.533c-0.606-1.73-0.215-3.685,1.016-5.021c1.395-1.514,3.535-2.011,5.446-1.27c0.079,0.031,0.137,0.099,0.154,0.182c0.018,0.082-0.008,0.168-0.067,0.228l-2.7,2.718l-0.251,1.503l1.064,1.057l1.501-0.26l2.7-2.718c0.059-0.06,0.146-0.083,0.228-0.069c0.083,0.018,0.151,0.075,0.182,0.153c0.724,1.834,0.292,3.923-1.097,5.32c-1.348,1.358-3.355,1.815-5.155,1.185l-10.457,10.53c-0.395,0.398-0.923,0.618-1.488,0.62C44.401,59.064,44.399,59.064,44.397,59.064z M57.987,38.777c-1.22,0-2.409,0.505-3.277,1.447c-1.139,1.237-1.478,3.064-0.861,4.656c0.036,0.092,0.014,0.196-0.056,0.266L43.222,55.792c-0.301,0.304-0.466,0.708-0.465,1.139s0.169,0.833,0.472,1.134c0.336,0.334,0.739,0.5,1.167,0.5c0.001,0,0.003,0,0.005,0c0.431-0.002,0.833-0.169,1.135-0.472l10.569-10.645c0.07-0.071,0.176-0.091,0.268-0.058c1.654,0.642,3.528,0.242,4.774-1.013c1.157-1.165,1.575-2.862,1.114-4.416l-2.473,2.489c-0.037,0.037-0.083,0.062-0.135,0.07l-1.707,0.296c-0.082,0.015-0.162-0.012-0.219-0.068l-1.248-1.239c-0.058-0.058-0.083-0.139-0.07-0.219l0.286-1.709c0.008-0.052,0.033-0.099,0.069-0.135l2.474-2.49C58.825,38.836,58.404,38.777,57.987,38.777z M44.804,57.342c-0.221,0-0.428-0.086-0.584-0.24l0,0c-0.324-0.322-0.326-0.849-0.004-1.172c0.155-0.157,0.363-0.244,0.585-0.245c0,0,0.002,0,0.003,0c0.221,0,0.428,0.086,0.584,0.24c0.157,0.156,0.243,0.364,0.244,0.586c0,0.222-0.085,0.43-0.241,0.587c-0.155,0.156-0.363,0.243-0.584,0.244C44.806,57.342,44.805,57.342,44.804,57.342z M44.804,56.185C44.804,56.185,44.803,56.185,44.804,56.185c-0.089,0.001-0.172,0.035-0.233,0.097c-0.128,0.129-0.127,0.338,0.001,0.465v0.001c0.062,0.061,0.144,0.095,0.231,0.095c0,0,0.001,0,0.001,0c0.088-0.001,0.17-0.035,0.231-0.097c0.062-0.062,0.096-0.145,0.096-0.233c0-0.088-0.035-0.17-0.097-0.231C44.974,56.219,44.892,56.185,44.804,56.185z"/><path fill="#472b29" d="M47.299 52.806c-.025 0-.051-.01-.071-.029-.039-.039-.039-.102 0-.141l6.473-6.466c.039-.039.103-.039.142 0s.039.102 0 .141l-6.473 6.466C47.35 52.796 47.324 52.806 47.299 52.806zM46.028 54.075c-.025 0-.051-.01-.071-.029-.039-.039-.039-.102 0-.141l.73-.729c.039-.039.103-.039.142 0s.039.102 0 .141l-.73.729C46.079 54.065 46.053 54.075 46.028 54.075zM45.011 55.09c-.025 0-.051-.01-.071-.029-.039-.039-.039-.103 0-.141l.509-.508c.039-.039.103-.039.142 0s.039.103 0 .141l-.509.508C45.062 55.081 45.036 55.09 45.011 55.09z"/><path fill="#7c8ba2" d="M58.15,54.922L58.15,54.922c-0.35,0.349-0.921,0.348-1.27-0.002L44.454,42.453c-0.349-0.35-0.348-0.921,0.002-1.27l0,0c0.35-0.349,0.921-0.348,1.27,0.002l12.426,12.467C58.501,54.002,58.5,54.573,58.15,54.922z"/><path fill="#472b29" d="M57.516,55.458c-0.301,0-0.602-0.114-0.831-0.344L44.259,42.647c-0.22-0.222-0.341-0.516-0.341-0.83c0-0.313,0.123-0.608,0.343-0.828c0.458-0.458,1.202-0.456,1.659,0.002l12.426,12.467c0.22,0.222,0.341,0.516,0.341,0.83c0,0.313-0.123,0.608-0.343,0.828c0,0,0,0,0,0.001C58.115,55.344,57.816,55.458,57.516,55.458z M58.15,54.921h0.007H58.15z M45.09,41.197c-0.159,0-0.319,0.061-0.44,0.182c-0.117,0.116-0.182,0.272-0.182,0.439c0,0.167,0.064,0.323,0.181,0.44l12.426,12.467c0.243,0.243,0.638,0.244,0.881,0.001c0.117-0.116,0.182-0.272,0.182-0.439c0-0.167-0.064-0.323-0.181-0.44L45.531,41.379C45.409,41.257,45.25,41.197,45.09,41.197z"/><path fill="#f1bc19" d="M52.946,53.008l5.958,5.978c0.91,0.913,2.333,1.136,3.289,0.414c1.141-0.861,1.141-2.586,0.068-3.661l-6.008-6.028L52.946,53.008z"/><path fill="#472b29" d="M60.865,60.106c-0.76,0-1.549-0.317-2.155-0.926l-5.958-5.978c-0.051-0.052-0.08-0.122-0.08-0.194c0-0.073,0.029-0.144,0.081-0.194l3.308-3.297c0.107-0.107,0.282-0.107,0.389,0l6.008,6.027c0.611,0.613,0.928,1.439,0.87,2.266c-0.052,0.735-0.396,1.379-0.967,1.811C61.926,59.947,61.403,60.106,60.865,60.106z M53.335,53.009l5.764,5.782c0.841,0.846,2.101,1.013,2.928,0.39c0.443-0.334,0.709-0.835,0.75-1.41c0.047-0.668-0.212-1.338-0.71-1.838L56.253,50.1L53.335,53.009z"/><path fill="#8e9db5" d="M43.486 41.642L44.934 40.199 48.259 42.464 48.172 43.565 46.9 44.833 45.741 44.974z"/><path fill="#472b29" d="M45.741,45.25c-0.09,0-0.176-0.045-0.228-0.121l-2.255-3.332c-0.074-0.109-0.06-0.256,0.033-0.349l1.448-1.443c0.094-0.095,0.241-0.106,0.349-0.033l3.324,2.266c0.082,0.056,0.127,0.15,0.119,0.249l-0.086,1.101c-0.005,0.065-0.033,0.127-0.08,0.174l-1.272,1.268c-0.043,0.043-0.1,0.07-0.161,0.078l-1.159,0.142C45.763,45.249,45.752,45.25,45.741,45.25z M43.841,41.676l2.033,3.005l0.899-0.11l1.133-1.129l0.065-0.84l-3.004-2.048L43.841,41.676z"/><path fill="#ce942b" d="M59.923,57.973L59.923,57.973c-0.21,0.209-0.553,0.209-0.762-0.001l-4.311-4.325c-0.209-0.21-0.209-0.553,0.001-0.762l0,0c0.21-0.209,0.553-0.209,0.762,0.001l4.311,4.325C60.134,57.421,60.133,57.764,59.923,57.973z"/><path fill="#472b29" d="M59.543,58.28c-0.177,0-0.354-0.067-0.488-0.203l-4.312-4.325c-0.129-0.13-0.2-0.303-0.2-0.487c0-0.184,0.072-0.356,0.202-0.486c0.269-0.269,0.707-0.269,0.974,0.002l4.312,4.325c0.268,0.269,0.267,0.706-0.002,0.975l0,0C59.895,58.213,59.719,58.28,59.543,58.28z M55.232,52.877c-0.1,0-0.199,0.037-0.275,0.113c-0.073,0.072-0.114,0.17-0.114,0.274s0.04,0.202,0.113,0.275l4.312,4.325c0.073,0.073,0.17,0.113,0.274,0.113h0.001c0.104,0,0.201-0.04,0.274-0.112c0.152-0.151,0.152-0.398,0.001-0.551l-4.311-4.325C55.431,52.916,55.332,52.877,55.232,52.877z M59.923,57.973h0.004H59.923z"/><path fill="#ce942b" d="M58.006,52.742l3.19,3.201c0.209,0.21,0.209,0.553-0.001,0.762l0,0c-0.21,0.209-0.553,0.209-0.762-0.001l-4.311-4.325c-0.209-0.21-0.209-0.553,0.001-0.762l0,0c0.21-0.209,0.553-0.209,0.762,0.001l0.32,0.321"/><path fill="#472b29" d="M60.815,57.011h-0.001c-0.184,0-0.357-0.072-0.486-0.202l-4.311-4.325c-0.129-0.13-0.201-0.303-0.2-0.487c0-0.185,0.072-0.356,0.202-0.486c0.129-0.129,0.302-0.2,0.486-0.2c0,0,0,0,0,0c0.185,0,0.358,0.071,0.487,0.202l0.32,0.32c0.058,0.059,0.058,0.153,0,0.212c-0.06,0.059-0.155,0.059-0.212-0.001l-0.319-0.32c-0.073-0.073-0.171-0.113-0.275-0.113l0,0c-0.104,0-0.201,0.04-0.274,0.113c-0.073,0.072-0.114,0.17-0.114,0.274c0,0.104,0.04,0.202,0.113,0.275l4.312,4.325c0.072,0.072,0.17,0.113,0.274,0.113c0,0,0,0,0,0c0.104,0,0.202-0.04,0.275-0.113c0.073-0.073,0.114-0.17,0.114-0.274c0-0.104-0.04-0.202-0.112-0.275l-3.19-3.201c-0.058-0.059-0.058-0.153,0-0.212c0.059-0.06,0.154-0.06,0.212,0.001l3.19,3.201c0.129,0.129,0.2,0.303,0.2,0.486c0,0.185-0.072,0.357-0.202,0.487C61.172,56.94,60.999,57.011,60.815,57.011z"/><path fill="#ce942b" d="M57.496 52.23L57.698 52.433"/><path fill="#472b29" d="M57.698 52.584c-.039 0-.077-.015-.106-.045l-.203-.203c-.059-.059-.059-.153 0-.212.058-.06.153-.06.212.001l.203.203c.059.059.059.153 0 .212C57.775 52.569 57.737 52.584 57.698 52.584zM47.508 45.532c-.009 0-.019-.001-.028-.004-.053-.015-.083-.07-.068-.124l.453-1.561c.015-.053.071-.086.124-.067.053.015.083.07.068.124l-.453 1.561C47.592 45.503 47.551 45.532 47.508 45.532zM47.917 45.761c-.009 0-.019-.001-.028-.004-.053-.015-.083-.07-.068-.124l.453-1.56c.015-.053.07-.086.124-.067.053.015.083.07.068.124l-.453 1.56C48 45.733 47.96 45.761 47.917 45.761zM48.295 46.141c-.009 0-.019-.001-.028-.004-.053-.015-.083-.07-.068-.124l.453-1.561c.015-.053.07-.085.124-.067.053.015.083.07.068.124l-.453 1.561C48.378 46.113 48.338 46.141 48.295 46.141zM48.66 46.497c-.009 0-.019-.001-.028-.004-.053-.015-.083-.07-.068-.124l.453-1.561c.015-.053.07-.085.124-.067.053.015.083.07.068.124l-.453 1.561C48.744 46.468 48.704 46.497 48.66 46.497zM49.187 46.319c-.009 0-.019-.001-.028-.004-.053-.015-.083-.07-.068-.124l.373-1.287c.016-.053.07-.086.124-.067.053.015.083.07.068.124l-.373 1.287C49.27 46.291 49.23 46.319 49.187 46.319zM49.704 46.086c-.009 0-.019-.001-.028-.004-.053-.015-.083-.07-.068-.124l.169-.581c.016-.053.071-.085.124-.067.053.015.083.07.068.124L49.8 46.015C49.787 46.058 49.747 46.086 49.704 46.086z"/></svg>